<svg fill="#FF730F" height="100" width="100" viewBox="0 0 512 512" xmlns="http://www.w3.org/2000/svg">
  <path d="m376.485 339.2-50.912 50.912a8 8 0 1 0 11.315 11.313l50.912-50.91a8 8 0 1 0 -11.315-11.315z"/>
  <path d="m410.427 316.574a8 8 0 0 0 -11.314 0l-5.657 5.657a8 8 0 1 0 11.313 11.314l5.657-5.656a8 8 0 0 0 .001-11.315z"/>
  <path d="m480 8h-448a24.032 24.032 0 0 0 -24 24v448a24.032 24.032 0 0 0 24 24h448a24.032 24.032 0 0 0 24-24v-448a24.032 24.032 0 0 0 -24-24zm8 472a8.011 8.011 0 0 1 -8 8h-448a8.011 8.011 0 0 1 -8-8v-408h464zm0-424h-464v-24a8.011 8.011 0 0 1 8-8h448a8.011 8.011 0 0 1 8 8z"/>
  <path d="m453.25 106.75a63.742 63.742 0 0 0 -44.37-18.7 7.769 7.769 0 0 0 -1.76 0 63.94 63.94 0 0 0 -63.12 63.95c0 1.01.03 2.02.07 3.02l-18.68 9.34a31.964 31.964 0 0 0 -47.24-13.91l-38.73-21.03a32.409 32.409 0 0 0 .46-5.42 32 32 0 1 0 -59.77 15.9l-27.52 24.62a32.1 32.1 0 0 0 -34.27.69l-33.71-19.86a23.924 23.924 0 1 0 -11.12 11.13 7.74 7.74 0 0 0 2.54 2.38l31.45 18.53a32 32 0 1 0 56.29-1.4l27.52-24.62a32.022 32.022 0 0 0 39.22-4.74q1.23-1.245 2.31-2.58l34.52 18.74a31.991 31.991 0 1 0 60.38 18.3l19.29-9.65a63.408 63.408 0 0 0 13.56 23.53 7.961 7.961 0 0 0 1.77 2.69 8.06 8.06 0 0 0 2.69 1.77 64 64 0 0 0 88.22-92.68zm-384.56 33.82a7.88 7.88 0 1 1 0-11.14 7.882 7.882 0 0 1 0 11.14zm78.62 62.63a16 16 0 1 1 0-22.63 16.024 16.024 0 0 1 0 22.63zm71.89-67.89a16.006 16.006 0 1 1 4.68-11.31 15.883 15.883 0 0 1 -4.68 11.31zm88.11 53a15.99 15.99 0 1 1 0-22.62 16.006 16.006 0 0 1 0 22.62zm108.69-83.61a47.934 47.934 0 0 1 39.33 39.3h-39.33zm-56 47.3a47.939 47.939 0 0 1 40-47.3v43.99l-31.12 31.12a47.657 47.657 0 0 1 -8.88-27.81zm81.94 33.94a48.058 48.058 0 0 1 -61.74 5.18l31.11-31.12h44.02a47.691 47.691 0 0 1 -13.39 25.94z"/>
  <path d="m472.65 265.66-11.31-11.31a24.021 24.021 0 0 0 -33.94 0l-147.08 147.08a8.028 8.028 0 0 0 -2.11 3.71l-11.1 44.44-6.42 6.42h-148.69a8 8 0 0 0 0 16h152a8.008 8.008 0 0 0 5.66-2.34l10.43-10.43 41.77-10.44a8.028 8.028 0 0 0 3.71-2.11l118.8-118.79 16.97-16.97 11.31-11.32a24.021 24.021 0 0 0 0-33.94zm-186.99 175.68 6.91-27.66 20.75 20.75zm39.91-17.29-22.62-22.62 101.82-101.83 22.63 22.63zm113.14-113.13-22.63-22.63 5.66-5.66 22.63 22.63zm22.63-22.63-5.66 5.66-22.63-22.63 5.66-5.66a8 8 0 0 1 11.31 0l11.32 11.32a8 8 0 0 1 0 11.31z"/>
  <circle cx="48" cy="40" r="8"/>
  <circle cx="72" cy="40" r="8"/>
  <circle cx="96" cy="40" r="8"/>
  <path d="m264 280v-32a8 8 0 0 0 -8-8h-208a8 8 0 0 0 -8 8v32a8 8 0 0 0 8 8h208a8 8 0 0 0 8-8zm-16-8h-192v-16h192z"/>
  <path d="m248 304a8 8 0 0 0 -8-8h-192a8 8 0 0 0 0 16h192a8 8 0 0 0 8-8z"/>
  <path d="m216 328a8 8 0 0 0 -8-8h-160a8 8 0 0 0 0 16h160a8 8 0 0 0 8-8z"/>
  <path d="m152 352a8 8 0 0 0 -8-8h-96a8 8 0 0 0 0 16h96a8 8 0 0 0 8-8z"/>
  <path d="m176 344h-8a8 8 0 0 0 0 16h8a8 8 0 0 0 0-16z"/>
  <path d="m88 408h-40a8 8 0 0 0 -8 8v48a8 8 0 0 0 8 8h40a8 8 0 0 0 8-8v-48a8 8 0 0 0 -8-8zm-8 48h-24v-32h24z"/>
  <path d="m112 448h64a8 8 0 0 0 0-16h-64a8 8 0 0 0 0 16z"/>
  <path d="m112 408a8 8 0 0 0 0 16h16a8 8 0 0 0 0-16z"/>
</svg>